<?xml version="1.0" standalone="no"?>
<!DOCTYPE svg PUBLIC "-//W3C//DTD SVG 20010904//EN"
 "http://www.w3.org/TR/2001/REC-SVG-20010904/DTD/svg10.dtd">
<svg version="1.0" xmlns="http://www.w3.org/2000/svg"
 width="597.000000pt" height="597.000000pt" viewBox="0 0 597.000000 597.000000"
 preserveAspectRatio="xMidYMid meet">
<metadata>
Created by potrace 1.14, written by Peter Selinger 2001-2017
</metadata>
<g transform="translate(0.000000,597.000000) scale(0.100000,-0.100000)"
fill="#000000" stroke="none">
<path d="M0 2985 l0 -2985 2985 0 2985 0 0 2985 0 2985 -2985 0 -2985 0 0
-2985z m3467 1982 c8 -8 9 -100 5 -499 l-2 -198 -915 0 -914 0 -6 -33 c-9 -48
-1 -654 8 -664 7 -6 651 -14 1110 -13 l37 0 -1 -192 c-2 -188 -13 -523 -17
-483 -2 15 -4 17 -11 7 -8 -13 -46 -16 -126 -9 -22 2 -50 0 -62 -4 -14 -5 -23
-4 -27 4 -3 9 -7 8 -15 -3 -7 -10 -11 -11 -11 -3 0 15 -42 13 -52 -2 -5 -7
-14 -6 -27 2 -14 9 -22 9 -27 2 -4 -8 -9 -7 -15 2 -8 12 -11 11 -19 -1 -8 -12
-10 -12 -10 -1 0 11 -3 11 -15 1 -8 -7 -15 -8 -15 -3 0 5 -27 6 -62 3 -35 -4
-65 -4 -68 -1 -7 9 -64 7 -71 -2 -3 -4 -19 -1 -35 8 -17 9 -30 11 -32 5 -5
-14 -32 -12 -32 3 0 8 -3 8 -9 -2 -11 -18 -61 -24 -61 -8 0 8 -3 7 -9 -2 -6
-10 -10 -10 -16 -1 -6 9 -10 9 -17 -1 -8 -11 -11 -11 -15 -1 -4 10 -8 10 -19
1 -8 -6 -14 -7 -14 -2 0 12 -43 12 -52 -1 -4 -6 -13 -5 -23 4 -13 11 -21 11
-35 2 -10 -6 -41 -11 -68 -10 -61 0 -72 -6 -72 -38 0 -16 -6 -24 -17 -25 -17
-1 -17 -2 0 -6 15 -4 17 -19 17 -134 0 -117 -2 -130 -17 -127 -9 2 -15 7 -14
12 2 5 -3 12 -10 17 -10 6 -7 11 11 19 23 10 23 10 -8 5 -24 -3 -38 1 -52 15
-11 11 -20 18 -20 14 0 -3 -16 7 -35 22 -19 14 -32 31 -28 37 4 6 1 7 -6 3 -9
-6 -9 -12 3 -25 9 -10 13 -21 9 -24 -3 -4 1 -7 10 -7 9 0 17 -4 17 -9 0 -14
-53 -20 -68 -9 -7 6 -56 12 -110 14 -62 1 -91 -1 -80 -7 9 -5 43 -8 75 -7 56
3 123 -15 123 -33 0 -4 -12 -2 -26 6 -15 7 -34 11 -43 7 -12 -5 -7 -9 17 -16
39 -11 42 -26 5 -22 -17 2 -32 11 -38 24 -5 12 -13 22 -18 22 -4 0 -6 -4 -2
-9 3 -5 1 -12 -5 -16 -15 -10 -12 -28 4 -22 8 3 20 -1 27 -9 10 -12 14 -12 22
-2 6 10 7 9 4 -4 -3 -9 -2 -18 2 -20 5 -2 6 -11 2 -20 -4 -13 -10 -15 -21 -7
-11 8 -12 12 -2 16 6 2 9 9 6 14 -7 12 -34 -8 -34 -26 0 -7 -13 -18 -30 -24
-16 -5 -30 -8 -30 -5 0 11 6 19 13 16 4 -1 15 5 24 13 14 15 14 17 -6 22 -11
3 -21 9 -21 14 0 18 -30 8 -55 -18 -22 -24 -27 -26 -35 -13 -11 16 -13 14 -40
-30 -4 -8 -12 -12 -16 -7 -4 4 1 15 10 26 13 15 14 20 4 24 -7 3 -3 6 10 6 12
1 22 5 22 11 0 5 -8 7 -17 4 -14 -5 -15 -4 -4 4 7 5 10 15 6 22 -6 9 -9 9 -15
1 -4 -8 -14 -9 -31 -2 -13 5 -19 10 -14 11 6 1 20 3 32 6 14 2 31 -5 44 -19
16 -16 20 -17 16 -5 -5 13 -2 15 11 11 15 -6 14 -3 -2 15 -11 12 -16 25 -13
29 4 3 7 1 7 -5 0 -7 11 -12 25 -12 26 0 34 -15 12 -23 -6 -2 -9 -8 -4 -12 4
-5 13 0 21 10 12 17 12 21 -2 31 -9 7 -20 10 -24 7 -5 -2 -16 3 -25 12 -14 14
-14 18 -2 26 11 7 11 9 -3 9 -18 0 -21 -7 -21 -42 0 -23 -10 -23 -31 1 -16 17
-16 19 4 24 11 3 20 10 20 16 0 6 -18 -1 -40 -15 -44 -29 -50 -39 -20 -31 11
3 23 1 26 -5 4 -6 -6 -8 -22 -6 -19 2 -30 10 -32 22 -2 10 0 16 6 13 10 -7 52
36 52 53 0 5 6 7 14 4 8 -3 16 -2 19 3 3 5 -5 10 -18 11 -13 1 -26 -5 -29 -13
-3 -8 -12 -12 -21 -9 -18 7 -21 -12 -2 -20 6 -3 2 -4 -10 -3 -12 1 -23 -2 -24
-8 0 -5 -5 -18 -10 -27 -7 -13 -6 -18 2 -18 7 0 10 -2 7 -5 -14 -14 -39 9 -37
34 4 58 0 69 -26 67 -27 -1 -33 -11 -12 -19 8 -4 9 -8 1 -14 -19 -15 -25 -43
-8 -43 12 0 13 -4 3 -22 -9 -16 -9 -23 0 -26 14 -5 15 -23 0 -20 -6 2 -13 -9
-14 -24 -3 -21 1 -28 13 -29 15 -1 15 -2 1 -6 -24 -6 -25 -83 -1 -84 14 -1 14
-2 1 -6 -13 -3 -16 -33 -18 -226 -1 -121 -4 -223 -6 -226 -3 -2 -5 173 -5 390
0 217 -3 898 -7 1514 l-6 1120 1256 0 c690 0 1259 -4 1264 -8z m1557 4 c19 -1
19 -20 13 -923 -4 -508 -7 -1071 -7 -1253 0 -204 -4 -324 -9 -315 -6 8 -7 18
-5 22 3 5 -2 15 -10 24 -9 8 -16 21 -16 29 0 7 -7 16 -16 19 -14 5 -15 4 -4
-9 10 -12 10 -15 -1 -16 -10 0 -11 -2 -1 -6 6 -2 12 -9 12 -14 0 -6 -5 -7 -11
-3 -6 3 -15 1 -19 -6 -4 -6 -5 12 -2 42 2 29 9 58 14 65 5 7 7 16 4 22 -4 5 2
12 11 14 18 5 3 7 -59 8 -34 1 -35 7 -5 19 16 6 17 9 5 9 -9 1 -19 -3 -23 -9
-3 -5 -11 -8 -18 -6 -7 1 -9 1 -4 -1 4 -3 4 -10 0 -16 -3 -7 -3 -9 2 -5 4 4
14 1 22 -7 8 -8 20 -15 26 -15 7 0 6 4 -3 10 -8 5 -11 12 -7 16 4 5 17 -2 29
-14 18 -17 19 -22 7 -27 -10 -4 -14 -16 -11 -39 2 -19 -1 -37 -7 -40 -6 -4
-11 0 -11 8 0 9 -7 16 -16 16 -11 0 -14 6 -9 23 6 18 5 20 -6 10 -20 -19 -21
-51 -2 -49 9 0 18 -5 21 -13 3 -10 -2 -11 -18 -6 -15 5 -20 4 -16 -4 4 -6 18
-11 32 -11 13 0 24 -4 24 -9 0 -10 -39 -3 -57 11 -15 12 -53 -11 -46 -29 3 -7
0 -13 -6 -13 -14 0 -15 27 -1 35 18 11 10 23 -14 21 -17 -1 -21 -4 -15 -12 6
-8 4 -14 -7 -18 -16 -6 -15 -8 2 -21 10 -8 14 -15 7 -15 -6 0 -15 4 -18 10 -9
15 -44 -11 -38 -29 4 -14 4 -14 -6 -1 -8 12 -5 20 15 38 17 16 23 30 19 43 -4
11 -2 19 4 19 6 0 11 7 11 15 0 8 -4 15 -10 15 -5 0 -10 -7 -10 -15 0 -8 -7
-15 -15 -15 -34 0 5 39 40 40 18 1 18 2 3 11 -18 10 -58 -7 -58 -24 0 -5 -8
-6 -19 -2 -10 3 -30 1 -44 -4 -17 -7 -28 -7 -32 -1 -4 6 -12 10 -18 10 -7 0
-4 -7 6 -14 26 -20 22 -41 -5 -22 -20 14 -24 14 -40 -1 -14 -13 -21 -14 -30
-5 -16 16 -25 15 -25 -3 0 -8 4 -12 9 -9 4 3 5 -2 2 -10 -3 -9 -1 -16 5 -16 6
0 11 4 11 8 0 9 44 32 60 32 6 0 10 -4 10 -10 0 -5 -6 -7 -14 -4 -8 3 -17 1
-21 -5 -8 -14 30 -14 56 -1 10 6 19 17 19 25 0 25 42 30 61 6 9 -11 23 -21 30
-21 7 0 0 -13 -16 -30 -17 -18 -39 -30 -54 -30 -15 0 -21 4 -15 8 6 4 14 17
18 30 4 12 12 22 17 22 13 0 11 -18 -3 -23 -7 -2 -10 -8 -6 -12 4 -4 15 0 24
9 11 12 13 21 6 28 -15 15 -45 5 -58 -20 -14 -29 -29 -43 -21 -19 7 18 -8 24
-18 6 -4 -6 -13 -8 -21 -5 -8 3 -14 -1 -14 -8 0 -8 6 -16 13 -19 6 -2 0 -4
-15 -4 -29 -1 -38 12 -15 20 9 4 9 7 0 17 -10 11 -13 10 -18 -3 -4 -9 -13 -13
-21 -10 -8 3 -14 1 -14 -5 0 -6 6 -12 13 -15 6 -2 8 -8 4 -13 -5 -5 -15 -1
-23 10 -14 20 -14 20 -29 0 -18 -24 -19 -14 -2 19 11 20 17 23 25 15 9 -9 12
-9 12 0 0 7 -5 12 -11 12 -6 0 -8 7 -5 16 5 13 4 14 -7 6 -8 -7 -17 -9 -20 -5
-12 12 -7 23 11 23 9 0 26 7 37 16 20 15 20 15 -1 20 -16 4 -20 11 -16 30 2
14 0 24 -7 24 -7 0 -9 -4 -6 -10 3 -5 1 -10 -4 -10 -17 0 -8 -24 14 -37 19
-11 19 -12 2 -18 -9 -4 -24 -2 -33 5 -12 10 -17 11 -27 1 -9 -10 -8 -11 7 -5
16 6 17 4 11 -16 -5 -15 -3 -25 6 -31 7 -4 10 -11 6 -15 -4 -4 -16 1 -27 11
-22 20 -27 6 -8 -25 15 -23 3 -38 -19 -24 -20 13 -29 34 -14 34 6 0 11 -7 11
-15 0 -8 5 -15 10 -15 14 0 12 16 -2 27 -19 15 -106 24 -113 13 -4 -6 -11 -8
-16 -5 -5 4 -9 -1 -9 -10 0 -8 -6 -18 -14 -21 -8 -3 -17 -11 -19 -19 -4 -10 0
-10 24 -2 16 7 27 17 25 23 -4 12 12 34 25 34 4 0 5 -9 2 -19 -3 -10 0 -28 6
-39 7 -14 7 -24 -3 -37 -12 -17 -13 -17 -19 -1 -4 10 -3 15 3 11 6 -3 10 1 10
9 0 20 -20 20 -46 1 -19 -14 -19 -14 1 -15 15 0 17 -2 6 -13 -10 -10 -14 -9
-22 6 -6 9 -17 17 -26 17 -13 0 -13 3 -3 15 10 12 10 18 0 30 -18 21 -5 48 20
40 14 -5 20 -2 20 10 0 9 -4 13 -10 10 -17 -10 -34 6 -19 17 11 8 11 9 -1 6
-8 -3 -17 -15 -21 -29 -4 -13 -7 -18 -8 -11 -1 6 -13 12 -28 13 -25 0 -26 1
-8 9 11 5 16 9 10 9 -5 1 13 22 40 47 28 25 40 40 28 33 -12 -7 -26 -10 -30
-6 -4 5 -1 12 7 17 12 8 13 11 2 22 -11 11 -13 10 -10 -2 2 -12 -6 -14 -34
-13 -21 1 -38 -2 -38 -7 0 -6 9 -11 20 -11 32 -2 38 -4 45 -11 10 -9 -57 -70
-71 -64 -20 8 -37 -21 -30 -49 4 -14 2 -25 -4 -25 -5 0 -10 8 -10 18 0 14 -3
14 -18 -5 -12 -17 -23 -21 -40 -16 -18 4 -21 8 -10 15 9 7 4 8 -14 4 -21 -5
-28 -3 -28 9 0 8 6 15 13 16 9 0 9 2 0 5 -9 4 -9 13 -2 31 10 28 7 39 -10 29
-6 -4 -7 -14 -4 -22 4 -12 0 -15 -18 -12 -15 2 -24 9 -23 20 1 10 -8 19 -22
22 -13 4 -24 11 -24 16 0 14 13 13 28 -2 9 -9 12 -9 12 0 0 7 -6 12 -12 13 -7
0 -4 5 7 10 19 9 18 9 -2 5 -16 -3 -23 1 -23 12 0 31 -10 4 -14 -37 -3 -37 -1
-41 15 -36 13 4 19 1 19 -9 0 -9 5 -16 11 -16 5 0 7 -4 4 -10 -10 -16 -25 -12
-25 7 0 13 -3 14 -12 5 -9 -9 -15 -9 -26 0 -9 8 -16 8 -20 2 -17 -25 -72 -26
-72 -2 0 6 6 6 14 -1 9 -8 16 -8 20 -2 9 14 -24 29 -56 25 -38 -4 -35 15 3 23
21 4 27 8 17 14 -7 5 -22 2 -35 -6 -19 -13 -23 -13 -31 1 -8 14 -10 14 -22 -1
-11 -13 -11 -18 0 -28 10 -10 12 -9 7 6 -8 22 9 23 17 0 4 -9 1 -20 -6 -24 -7
-4 -9 -12 -4 -16 5 -4 11 -2 13 5 7 19 53 15 53 -5 0 -13 -3 -14 -12 -5 -8 8
-17 8 -30 1 -10 -5 -23 -7 -28 -4 -5 3 -14 -3 -20 -12 -10 -15 -11 -15 -6 -1
4 13 0 16 -19 12 -20 -3 -23 -1 -18 13 5 13 3 15 -12 10 -18 -8 -75 12 -75 25
0 5 -4 8 -10 8 -5 0 -10 -5 -10 -11 0 -10 -24 -39 -33 -39 -3 0 -7 7 -10 14
-4 10 -1 13 8 10 9 -4 16 3 21 20 7 28 11 30 33 17 15 -10 51 7 51 23 0 4 -7
3 -15 -4 -20 -16 -37 -9 -42 18 -3 22 11 30 22 12 3 -5 14 -10 23 -10 15 1 15
2 -2 11 -15 9 -16 13 -5 20 11 7 11 12 -5 26 -17 17 -18 17 -12 -3 6 -19 2
-22 -31 -26 -21 -3 -41 -1 -44 5 -4 5 -9 4 -14 -3 -10 -16 -1 -22 29 -22 l26
0 -21 -29 c-26 -37 -38 -44 -52 -30 -14 14 10 34 31 26 6 -2 12 1 12 9 0 7 -6
13 -12 14 -7 1 -26 4 -43 7 l-30 6 25 -15 c18 -11 20 -15 9 -16 -9 0 -34 19
-54 43 -21 23 -61 67 -89 97 -86 93 -101 112 -91 110 24 -5 23 2 -5 32 -17 17
-27 34 -23 37 11 8 13 41 3 41 -5 0 -6 9 -3 20 3 11 1 20 -3 20 -15 0 -10 135
5 154 8 9 10 20 6 24 -4 4 -10 1 -12 -5 -3 -7 -9 -13 -14 -13 -5 0 -3 13 6 30
14 27 14 30 -3 39 -9 6 -12 11 -7 11 7 0 10 29 10 76 -1 44 3 81 10 88 21 22
59 79 47 72 -8 -5 -12 0 -12 15 0 18 -3 20 -12 11 -7 -7 -16 -12 -22 -12 -6 0
-5 5 2 12 17 17 15 26 -5 31 -10 3 51 5 135 6 113 1 157 -2 165 -12 7 -7 46
-51 87 -97 41 -47 77 -87 80 -90 8 -7 222 -249 331 -376 48 -54 128 -146 179
-204 50 -58 103 -122 118 -142 38 -52 52 -49 52 12 0 49 1 50 25 44 34 -8 32
4 -2 17 -26 10 -27 12 -8 19 17 7 17 9 3 9 -17 1 -18 20 -18 254 0 138 -3 642
-7 1119 l-6 867 334 -3 c184 -2 343 -4 353 -5z m-3999 -2332 c-8 -12 -35 -11
-35 2 0 5 5 7 10 4 6 -3 10 -1 10 5 0 6 5 8 10 5 6 -4 8 -11 5 -16z m501 -41
c4 -7 3 -8 -4 -4 -7 4 -12 1 -12 -9 0 -12 -6 -15 -20 -10 -15 5 -20 2 -20 -11
0 -14 -3 -14 -15 -4 -20 17 -14 33 16 41 37 11 47 10 55 -3z m-482 -30 c-3 -5
-12 -4 -20 3 -19 16 -18 18 6 12 11 -3 17 -9 14 -15z m503 6 c-3 -3 -12 -4
-19 -1 -8 3 -5 6 6 6 11 1 17 -2 13 -5z m-97 -35 c0 -5 -15 -9 -32 -9 l-33 0
25 14 c26 13 40 12 40 -5z m76 8 c4 -4 -1 -16 -11 -27 -11 -12 -13 -20 -6 -20
7 0 9 -5 6 -10 -4 -6 -15 -8 -24 -5 -12 3 -21 -2 -29 -17 -11 -23 -11 -23 -11
-2 -1 23 -26 39 -43 27 -7 -4 -8 -1 -4 6 5 7 14 10 20 8 7 -3 19 3 26 13 8 11
18 16 22 14 5 -3 1 -12 -9 -19 -10 -7 -14 -17 -10 -21 4 -4 20 4 35 19 14 15
21 27 14 27 -6 0 -12 4 -12 9 0 10 26 9 36 -2z m54 3 c0 -5 -4 -10 -9 -10 -6
0 -13 5 -16 10 -3 6 1 10 9 10 9 0 16 -4 16 -10z m2000 -11 c0 -6 -4 -7 -10
-4 -5 3 -10 11 -10 16 0 6 5 7 10 4 6 -3 10 -11 10 -16z m-2443 -5 c-3 -3 -12
-4 -19 -1 -8 3 -5 6 6 6 11 1 17 -2 13 -5z m476 -8 c9 -5 17 -17 17 -29 0 -19
-1 -19 -23 5 -21 22 -25 23 -44 11 -20 -13 -22 -13 -21 4 2 19 37 24 71 9z
m1951 -26 c6 -8 1 -7 -11 4 -13 10 -20 23 -16 29 4 7 8 6 11 -3 3 -8 10 -22
16 -30z m330 33 c10 -11 49 -11 69 -1 20 10 23 -2 5 -21 -11 -11 -10 -13 5 -8
13 5 17 1 17 -18 0 -13 -5 -27 -11 -30 -17 -11 -23 3 -9 20 11 13 10 14 -4 9
-9 -3 -16 -12 -16 -20 0 -8 -7 -14 -15 -14 -9 0 -12 6 -9 15 4 11 -1 15 -17
15 -21 1 -22 2 -6 11 9 5 17 15 17 22 0 9 -2 9 -8 -1 -7 -9 -13 -8 -27 8 -16
18 -8 30 9 13z m269 -27 c7 4 7 2 -1 -7 -11 -12 -14 -12 -21 0 -5 8 -6 21 -3
30 5 13 8 11 10 -7 2 -14 8 -20 15 -16z m-3128 14 c19 -8 19 -9 -2 -9 -12 -1
-25 4 -28 9 -7 12 2 12 30 0z m2225 -52 c0 -34 -3 -59 -6 -56 -3 3 -5 29 -6
57 0 36 -4 51 -14 51 -8 0 -11 -6 -8 -15 4 -8 1 -15 -5 -15 -6 0 -11 5 -11 10
0 6 -5 10 -12 10 -6 0 -8 -3 -5 -7 4 -3 0 -14 -9 -24 -9 -10 -13 -23 -9 -28
10 -17 23 -13 21 5 0 9 5 18 12 20 7 1 8 0 2 -3 -18 -9 -11 -23 13 -23 12 0
17 -3 11 -8 -6 -4 -14 -14 -17 -22 -5 -13 -6 -13 -6 0 -1 9 -11 15 -26 15 -16
0 -23 -5 -20 -12 9 -26 -11 -12 -29 20 -10 17 -13 26 -5 20 15 -15 29 -17 29
-4 0 5 -9 12 -19 16 -14 4 -18 11 -14 23 6 16 6 16 -10 0 -13 -12 -27 -15 -54
-11 -26 4 -34 3 -29 -5 5 -8 -1 -12 -14 -12 -14 0 -19 4 -14 13 6 10 4 10 -7
0 -7 -7 -21 -13 -30 -13 -10 0 -20 6 -23 13 -5 10 -7 10 -12 0 -3 -7 -10 -13
-15 -13 -6 0 -8 4 -5 8 3 5 -8 8 -24 7 -21 -1 -30 3 -31 14 0 10 -2 12 -6 4
-2 -7 -11 -13 -19 -13 -8 0 -11 6 -8 15 5 12 -11 15 -93 18 -54 1 43 4 215 5
l312 2 0 -62z m560 51 c0 -5 -13 -9 -30 -9 -21 0 -28 -4 -24 -14 4 -11 0 -13
-15 -9 -12 3 -21 10 -21 15 0 5 4 7 9 4 5 -3 11 0 14 7 5 13 67 19 67 6z m53
-27 c-7 -4 -31 -5 -55 -3 -32 4 -36 6 -16 9 14 2 32 10 39 18 11 13 14 13 28
-1 12 -12 13 -18 4 -23z m-2793 18 c0 -5 -2 -10 -4 -10 -3 0 -8 5 -11 10 -3 6
-1 10 4 10 6 0 11 -4 11 -10z m188 -8 c-10 -2 -18 -8 -18 -14 0 -6 -8 -17 -17
-24 -17 -12 -16 -13 4 -14 12 0 25 -4 28 -10 3 -5 4 -10 1 -10 -2 0 -12 -3
-22 -7 -11 -4 -15 -3 -11 4 10 15 -14 22 -35 11 -12 -5 -18 -5 -18 2 0 5 6 10
13 10 6 0 23 16 37 34 16 22 30 31 40 28 12 -5 12 -7 -2 -10z m2322 3 c7 -9 8
-15 2 -15 -5 0 -12 7 -16 15 -3 8 -4 15 -2 15 2 0 9 -7 16 -15z m62 8 c-6 -2
-10 -9 -6 -14 3 -5 -2 -9 -10 -9 -17 0 -29 14 -19 24 3 3 16 6 27 5 12 0 15
-3 8 -6z m-2522 -13 c0 -5 -8 -10 -17 -10 -15 0 -16 2 -3 10 19 12 20 12 20 0z
m1650 6 c0 -3 -4 -8 -10 -11 -5 -3 -10 -1 -10 4 0 6 5 11 10 11 6 0 10 -2 10
-4z m30 -2 c0 -3 -7 -12 -15 -20 -16 -17 -18 -14 -9 10 6 15 24 23 24 10z
m1410 -5 c0 -6 -6 -9 -14 -6 -8 3 -17 -1 -20 -10 -5 -12 -1 -14 14 -10 22 6
37 -10 23 -24 -5 -5 -22 -5 -42 1 -44 12 -81 -2 -81 -32 -1 -21 -1 -22 -11 -4
-6 10 -14 14 -18 9 -3 -6 -19 -13 -36 -17 -26 -5 -28 -5 -10 6 11 6 23 16 27
22 4 6 15 11 25 11 10 0 17 6 15 14 -2 10 7 12 37 9 35 -3 41 0 46 19 5 23 45
34 45 12z m641 -2 c-6 -8 -9 -17 -6 -21 3 -3 0 -2 -6 3 -12 10 -4 31 13 31 7
0 7 -4 -1 -13z m107 -1 c-7 -8 -15 -12 -17 -11 -5 6 10 25 20 25 5 0 4 -6 -3
-14z m-3909 -24 c0 -11 -3 -12 -6 -4 -2 6 -14 12 -26 13 -21 0 -21 1 -2 8 25
10 35 5 34 -17z m549 3 c12 -14 21 -35 21 -48 -1 -17 -2 -18 -6 -4 -2 9 -8 17
-13 17 -4 0 -10 9 -13 20 -5 20 -37 29 -37 10 0 -13 -27 -13 -35 0 -3 6 1 7 9
4 9 -4 18 1 22 10 9 23 27 20 52 -9z m2786 10 c3 -9 0 -15 -9 -15 -8 0 -15 6
-15 13 0 8 -3 7 -10 -3 -5 -8 -12 -11 -15 -8 -11 11 5 28 25 28 10 0 20 -7 24
-15z m-689 -13 c-3 -3 -11 0 -18 7 -9 10 -8 11 6 5 10 -3 15 -9 12 -12z m1235
2 c0 -8 -4 -13 -9 -10 -5 4 -11 2 -13 -4 -2 -6 -9 -1 -16 10 -11 18 -10 20 13
20 16 0 25 -6 25 -16z m67 -9 c1 -15 0 -15 -3 -3 -3 9 -13 19 -22 22 -12 3
-12 4 3 3 12 -1 21 -10 22 -22z m-3817 6 c0 -5 -7 -11 -14 -14 -10 -4 -13 -1
-9 9 6 15 23 19 23 5z m1635 -1 c-3 -5 -11 -10 -16 -10 -6 0 -7 5 -4 10 3 6
11 10 16 10 6 0 7 -4 4 -10z m35 0 c0 -5 -4 -10 -10 -10 -5 0 -10 5 -10 10 0
6 5 10 10 10 6 0 10 -4 10 -10z m25 -20 c-4 -12 -9 -19 -12 -17 -3 3 -2 15 2
27 4 12 9 19 12 17 3 -3 2 -15 -2 -27z m193 18 c10 -10 15 -10 22 2 8 13 10
13 10 -2 0 -9 -8 -19 -17 -21 -14 -4 -12 -5 5 -6 12 0 22 -6 22 -12 0 -14 -42
0 -57 20 -22 29 -10 44 15 19z m566 -2 c9 3 16 2 16 -4 0 -14 -51 -25 -63 -13
-14 14 2 35 18 21 7 -6 20 -8 29 -4z m236 4 c0 -5 -4 -10 -10 -10 -5 0 -10 5
-10 10 0 6 5 10 10 10 6 0 10 -4 10 -10z m140 0 c0 -5 -2 -10 -4 -10 -3 0 -8
5 -11 10 -3 6 -1 10 4 10 6 0 11 -4 11 -10z m620 -21 c0 -11 -4 -17 -10 -14
-5 3 -10 15 -10 26 0 11 5 17 10 14 6 -3 10 -15 10 -26z m-3530 2 c-5 -11 -15
-23 -21 -27 -8 -5 -8 -1 0 14 9 17 8 21 -7 25 -10 3 -6 5 11 6 24 1 26 -1 17
-18z m293 -1 c3 -11 1 -20 -4 -20 -5 0 -9 7 -9 15 0 8 -5 15 -11 15 -5 0 -7
-5 -3 -12 4 -7 3 -8 -5 -4 -6 4 -9 12 -6 17 10 16 32 10 38 -11z m37 5 c0 -8
-4 -15 -10 -15 -5 0 -10 7 -10 15 0 8 5 15 10 15 6 0 10 -7 10 -15z m64 -1 c5
-14 4 -15 -9 -4 -17 14 -19 20 -6 20 5 0 12 -7 15 -16z m2250 10 c9 -3 13 -11
9 -17 -4 -6 0 -8 10 -4 10 3 17 2 17 -3 0 -16 -30 -11 -36 5 -4 10 -14 14 -28
10 -17 -5 -18 -4 -6 4 18 13 15 12 34 5z m291 -15 c-10 -15 -25 -10 -19 6 4 8
10 12 15 9 5 -3 7 -10 4 -15z m730 11 c3 -5 1 -10 -4 -10 -6 0 -11 5 -11 10 0
6 2 10 4 10 3 0 8 -4 11 -10z m70 -1 c12 -18 -3 -22 -20 -5 -14 14 -14 16 -1
16 8 0 18 -5 21 -11z m-3511 -11 c-3 -4 -9 -8 -15 -8 -5 0 -9 4 -9 8 0 5 7 9
15 9 8 0 12 -4 9 -9z m251 2 c-3 -6 1 -13 9 -16 9 -3 16 -15 16 -26 0 -10 5
-16 10 -13 6 3 10 -1 10 -9 0 -23 -28 -8 -32 17 -4 30 -68 44 -75 16 -3 -10
-10 -19 -15 -19 -20 0 19 43 40 45 12 1 25 5 29 8 10 10 15 8 8 -3z m1360 -1
c-16 -7 -14 -8 10 -4 54 9 97 11 101 3 3 -5 -4 -8 -15 -8 -12 0 -21 -6 -21
-12 0 -7 -5 -5 -11 5 -6 9 -15 15 -21 11 -6 -4 -5 -10 3 -16 13 -8 -16 -4 -63
9 -10 2 -18 0 -18 -6 0 -6 5 -11 12 -11 6 0 9 -2 6 -5 -7 -7 -38 5 -38 15 0 9
40 29 60 29 10 0 8 -4 -5 -10z m1450 -9 c-10 -11 -20 -18 -23 -15 -7 6 18 35
31 35 5 0 2 -9 -8 -20z m312 -3 c-2 -6 -9 -13 -17 -15 -7 -3 -10 0 -6 7 4 6 3
11 -1 11 -5 0 -14 -9 -21 -20 -13 -21 -42 -28 -42 -10 0 6 5 9 12 8 7 -2 17 6
22 18 7 15 16 19 33 16 13 -2 22 -9 20 -15z m-1917 -2 c-7 -8 -17 -15 -22 -15
-6 0 -5 7 2 15 7 8 17 15 22 15 6 0 5 -7 -2 -15z m1355 5 c-3 -5 -12 -10 -18
-10 -7 0 -6 4 3 10 19 12 23 12 15 0z m289 -5 c-18 -15 -17 -16 13 -10 44 9
67 -12 46 -41 -15 -18 -15 -18 -8 4 7 26 -19 42 -38 23 -8 -8 -7 -11 6 -11 9
0 17 -5 17 -11 0 -10 -5 -8 -48 19 -21 14 -21 15 -5 28 25 19 41 17 17 -1z
m86 5 c0 -5 -5 -10 -11 -10 -5 0 -7 5 -4 10 3 6 8 10 11 10 2 0 4 -4 4 -10z
m510 -17 c0 -21 -3 -24 -9 -14 -5 8 -7 20 -4 28 8 21 13 15 13 -14z m-3726 2
c3 -9 0 -15 -8 -15 -7 0 -13 7 -13 15 0 8 4 15 8 15 4 0 9 -7 13 -15z m1518 8
c-6 -2 -9 -10 -6 -15 4 -7 2 -8 -5 -4 -13 9 -5 26 12 25 9 0 8 -2 -1 -6z
m1178 -3 c-8 -5 -28 -9 -45 -9 -30 2 -30 2 5 9 51 11 57 11 40 0z m185 0 c-3
-5 1 -10 9 -10 9 0 16 -4 16 -9 0 -5 -9 -7 -20 -4 -21 5 -28 33 -9 33 5 0 7
-4 4 -10z m365 6 c0 -3 -4 -8 -10 -11 -5 -3 -10 -1 -10 4 0 6 5 11 10 11 6 0
10 -2 10 -4z m30 -6 c0 -5 -4 -10 -10 -10 -5 0 -10 5 -10 10 0 6 5 10 10 10 6
0 10 -4 10 -10z m190 0 c0 -5 -5 -10 -11 -10 -5 0 -7 5 -4 10 3 6 8 10 11 10
2 0 4 -4 4 -10z m61 -8 c-13 -2 -27 0 -32 5 -6 6 3 7 23 4 28 -4 29 -6 9 -9z
m116 12 c-3 -3 -12 -4 -19 -1 -8 3 -5 6 6 6 11 1 17 -2 13 -5z m-3897 -8 c0
-3 -4 -8 -10 -11 -5 -3 -10 -1 -10 4 0 6 5 11 10 11 6 0 10 -2 10 -4z m324
-28 c-3 -5 -12 -2 -20 6 -20 21 -17 28 5 14 11 -7 17 -16 15 -20z m116 22 c0
-5 -2 -10 -4 -10 -3 0 -8 5 -11 10 -3 6 -1 10 4 10 6 0 11 -4 11 -10z m1584
-33 c6 -5 2 -7 -12 -4 -18 4 -22 2 -18 -10 5 -11 3 -13 -6 -7 -7 5 -27 9 -45
9 -25 -1 -30 2 -21 13 8 9 13 10 18 1 10 -16 53 -1 46 16 -3 8 0 16 7 18 7 2
14 -3 16 -12 2 -9 8 -20 15 -24z m806 23 c-13 -11 -25 -20 -28 -20 -3 0 3 9
13 20 10 11 23 20 28 20 6 0 0 -9 -13 -20z m1030 11 c0 -6 -4 -13 -10 -16 -5
-3 -10 1 -10 9 0 9 5 16 10 16 6 0 10 -4 10 -9z m-3450 -11 c0 -5 -7 -7 -15
-4 -8 4 -15 8 -15 10 0 2 7 4 15 4 8 0 15 -4 15 -10z m1419 -3 c11 -14 5 -27
-11 -27 -5 0 -7 4 -3 9 3 5 1 12 -5 16 -5 3 -10 1 -10 -5 0 -6 -5 -8 -11 -4
-8 4 -7 9 2 15 19 12 25 11 38 -4z m874 -2 c-3 -9 -8 -14 -10 -11 -3 3 -2 9 2
15 9 16 15 13 8 -4z m387 5 c0 -5 -8 -10 -17 -10 -15 0 -16 2 -3 10 19 12 20
12 20 0z m107 -4 c-7 -17 26 -31 45 -20 10 6 10 4 0 -8 -8 -9 -20 -14 -28 -11
-8 3 -14 0 -14 -6 0 -6 -5 -11 -12 -11 -9 0 -9 3 0 12 8 8 8 15 1 24 -6 7 -8
18 -4 24 9 15 18 12 12 -4z m708 4 c-3 -5 -12 -10 -18 -10 -7 0 -6 4 3 10 19
12 23 12 15 0z m-3414 -20 c-13 -11 -28 -20 -35 -19 -6 0 -1 5 12 11 12 6 22
15 22 20 0 4 6 8 13 8 6 -1 1 -10 -12 -20z m1574 9 c11 -17 2 -18 -19 -3 -17
12 -17 14 -4 14 9 0 20 -5 23 -11z m41 -16 c-7 -7 -26 7 -26 19 0 6 6 6 15 -2
9 -7 13 -15 11 -17z m1214 17 c0 -5 -4 -10 -10 -10 -5 0 -10 5 -10 10 0 6 5
10 10 10 6 0 10 -4 10 -10z m45 -18 c-7 -8 -35 7 -35 18 0 6 7 6 20 -2 10 -7
17 -14 15 -16z m187 10 c3 -10 -1 -23 -8 -30 -17 -16 -24 -15 -24 3 0 8 4 15
10 15 5 0 7 7 4 15 -4 8 -2 15 4 15 5 0 12 -8 14 -18z m78 9 c0 -5 -7 -12 -16
-15 -14 -5 -15 -4 -4 9 14 17 20 19 20 6z m80 -11 c-8 -6 -22 -10 -30 -10 -8
0 -4 6 10 13 27 15 44 12 20 -3z m120 10 c0 -5 -7 -7 -15 -4 -8 4 -15 8 -15
10 0 2 7 4 15 4 8 0 15 -4 15 -10z m130 -6 c0 -8 -4 -12 -10 -9 -5 3 -10 10
-10 16 0 5 5 9 10 9 6 0 10 -7 10 -16z m-3960 -4 c0 -5 -5 -10 -11 -10 -5 0
-7 5 -4 10 3 6 8 10 11 10 2 0 4 -4 4 -10z m2156 -15 c-9 -9 -16 -13 -16 -8 0
12 22 34 28 28 2 -2 -3 -11 -12 -20z m51 -12 c-3 -10 -5 -4 -5 12 0 17 2 24 5
18 2 -7 2 -21 0 -30z m643 28 c0 -5 -7 -12 -16 -15 -14 -5 -15 -4 -4 9 14 17
20 19 20 6z m645 -46 c-11 -8 -26 -19 -33 -26 -7 -6 -16 -9 -18 -6 -3 3 6 14
20 25 25 19 35 42 18 42 -4 0 -14 -6 -21 -12 -11 -11 -11 -9 -1 11 l12 23 22
-21 c21 -22 21 -22 1 -36z m300 45 c3 -5 1 -10 -4 -10 -6 0 -11 5 -11 10 0 6
2 10 4 10 3 0 8 -4 11 -10z m-3535 -4 c0 -2 -7 -7 -16 -10 -8 -3 -12 -2 -9 4
6 10 25 14 25 6z m103 -3 c-7 -2 -19 -2 -25 0 -7 3 -2 5 12 5 14 0 19 -2 13
-5z m1292 -3 c3 -6 -1 -7 -9 -4 -18 7 -21 14 -7 14 6 0 13 -4 16 -10z m125 0
c0 -5 -2 -10 -4 -10 -3 0 -8 5 -11 10 -3 6 -1 10 4 10 6 0 11 -4 11 -10z m120
0 c0 -5 -4 -10 -10 -10 -5 0 -10 5 -10 10 0 6 5 10 10 10 6 0 10 -4 10 -10z
m780 0 c0 -5 -5 -10 -11 -10 -5 0 -7 5 -4 10 3 6 8 10 11 10 2 0 4 -4 4 -10z
m360 6 c0 -3 -4 -8 -10 -11 -5 -3 -10 -1 -10 4 0 6 5 11 10 11 6 0 10 -2 10
-4z m91 -5 c-7 -5 -10 -14 -6 -21 6 -9 3 -9 -14 -1 -29 16 -26 31 7 31 19 0
23 -3 13 -9z m458 -4 c8 -10 7 -14 -2 -14 -8 0 -14 6 -14 14 0 7 1 13 2 13 2
0 8 -6 14 -13z m388 -9 c-3 -8 -6 -5 -6 6 -1 11 2 17 5 13 3 -3 4 -12 1 -19z
m-3647 -3 c9 -10 9 -15 1 -15 -6 0 -11 4 -11 10 0 5 -7 6 -17 3 -11 -4 -14 -3
-9 5 10 16 21 15 36 -3z m1525 5 c3 -5 1 -10 -4 -10 -6 0 -11 5 -11 10 0 6 2
10 4 10 3 0 8 -4 11 -10z m1441 -5 c-8 -8 -21 -15 -28 -15 -8 1 -6 6 6 15 26
20 42 19 22 0z m454 11 c0 -2 -7 -6 -15 -10 -8 -3 -15 -1 -15 4 0 6 7 10 15
10 8 0 15 -2 15 -4z m-3334 -21 c-11 -8 -25 -15 -30 -15 -6 1 0 7 14 15 32 19
40 18 16 0z m143 12 c-2 -1 -13 -9 -24 -17 -19 -14 -19 -14 -6 3 7 9 18 17 24
17 6 0 8 -1 6 -3z m1241 -12 c-7 -8 -17 -15 -22 -15 -11 0 14 29 26 30 5 0 3
-7 -4 -15z m1185 -3 c-3 -3 -11 0 -18 7 -9 10 -8 11 6 5 10 -3 15 -9 12 -12z
m-1080 -2 c-3 -5 -12 -10 -20 -10 -7 0 -16 -6 -18 -12 -3 -8 -6 -7 -6 4 -1 10
8 18 22 21 12 2 23 5 25 6 2 0 0 -3 -3 -9z m965 0 c0 -5 -5 -10 -11 -10 -5 0
-7 5 -4 10 3 6 8 10 11 10 2 0 4 -4 4 -10z m490 0 c-19 -13 -30 -13 -30 0 0 6
10 10 23 10 18 0 19 -2 7 -10z m350 0 c0 -5 -2 -10 -4 -10 -3 0 -8 5 -11 10
-3 6 -1 10 4 10 6 0 11 -4 11 -10z m-3210 -4 c0 -3 -4 -8 -10 -11 -5 -3 -10
-1 -10 4 0 6 5 11 10 11 6 0 10 -2 10 -4z m2458 -21 c-3 -3 -9 2 -12 12 -6 14
-5 15 5 6 7 -7 10 -15 7 -18z m489 19 c-3 -3 -12 -4 -19 -1 -8 3 -5 6 6 6 11
1 17 -2 13 -5z m524 -8 c5 3 8 -7 8 -23 -1 -17 -3 -21 -6 -10 -2 9 -9 17 -14
17 -5 0 -9 8 -8 18 0 10 3 12 6 4 2 -6 9 -10 14 -6z m-3601 -6 c0 -5 -5 -10
-11 -10 -5 0 -7 5 -4 10 3 6 8 10 11 10 2 0 4 -4 4 -10z m1837 4 c-3 -3 -12
-4 -19 -1 -8 3 -5 6 6 6 11 1 17 -2 13 -5z m1108 -4 c-3 -5 -11 -10 -16 -10
-6 0 -7 5 -4 10 3 6 11 10 16 10 6 0 7 -4 4 -10z m505 0 c0 -5 -4 -10 -10 -10
-5 0 -10 5 -10 10 0 6 5 10 10 10 6 0 10 -4 10 -10z m-3520 -10 c0 -5 -2 -10
-4 -10 -3 0 -8 5 -11 10 -3 6 -1 10 4 10 6 0 11 -4 11 -10z m277 4 c-3 -3 -12
-4 -19 -1 -8 3 -5 6 6 6 11 1 17 -2 13 -5z m2655 -14 c18 -11 28 -20 22 -20
-5 0 -19 7 -30 15 -26 20 -38 19 -29 -2 5 -14 3 -15 -6 -6 -6 6 -8 16 -5 22 9
14 10 14 48 -9z m188 5 c7 -8 8 -15 2 -15 -5 0 -15 7 -22 15 -7 8 -8 15 -2 15
5 0 15 -7 22 -15z m115 5 c-3 -5 -14 -10 -23 -10 -15 0 -15 2 -2 10 20 13 33
13 25 0z m-3075 -10 c0 -5 -5 -10 -11 -10 -5 0 -7 5 -4 10 3 6 8 10 11 10 2 0
4 -4 4 -10z m3120 0 c0 -5 -5 -10 -11 -10 -5 0 -7 5 -4 10 3 6 8 10 11 10 2 0
4 -4 4 -10z m70 0 c0 -5 -5 -10 -11 -10 -5 0 -7 5 -4 10 3 6 8 10 11 10 2 0 4
-4 4 -10z m-1760 -9 c0 -5 -7 -11 -14 -14 -10 -4 -13 -1 -9 9 6 15 23 19 23 5z
m1406 -26 c-9 -9 -16 -13 -16 -8 0 12 22 34 28 28 2 -2 -3 -11 -12 -20z m174
7 c0 -4 -9 -8 -20 -9 -11 -1 -18 2 -15 8 7 11 35 12 35 1z m510 -22 c0 -5 -2
-10 -4 -10 -3 0 -8 5 -11 10 -3 6 -1 10 4 10 6 0 11 -4 11 -10z m-2443 -32
c-3 -8 -6 -5 -6 6 -1 11 2 17 5 13 3 -3 4 -12 1 -19z m1878 2 c-3 -5 -11 -10
-16 -10 -6 0 -7 5 -4 10 3 6 11 10 16 10 6 0 7 -4 4 -10z m562 4 c-3 -3 -12
-4 -19 -1 -8 3 -5 6 6 6 11 1 17 -2 13 -5z m-2440 -56 c-3 -7 -5 -2 -5 12 0
14 2 19 5 13 2 -7 2 -19 0 -25z m0 -70 c-3 -8 -6 -5 -6 6 -1 11 2 17 5 13 3
-3 4 -12 1 -19z m0 -50 c-3 -8 -6 -5 -6 6 -1 11 2 17 5 13 3 -3 4 -12 1 -19z
m0 -60 c-3 -7 -5 -2 -5 12 0 14 2 19 5 13 2 -7 2 -19 0 -25z"/>
<path d="M1010 2980 c0 -5 5 -10 10 -10 6 0 10 5 10 10 0 6 -4 10 -10 10 -5 0
-10 -4 -10 -10z"/>
<path d="M1910 2961 c0 -6 4 -13 10 -16 6 -3 7 1 4 9 -7 18 -14 21 -14 7z"/>
<path d="M2390 2960 c0 -5 5 -10 11 -10 5 0 7 5 4 10 -3 6 -8 10 -11 10 -2 0
-4 -4 -4 -10z"/>
<path d="M2550 2949 c0 -5 5 -7 10 -4 6 3 10 8 10 11 0 2 -4 4 -10 4 -5 0 -10
-5 -10 -11z"/>
<path d="M1748 2943 c7 -3 16 -2 19 1 4 3 -2 6 -13 5 -11 0 -14 -3 -6 -6z"/>
<path d="M1711 2931 c-8 -5 -9 -11 -3 -15 5 -3 12 1 16 9 6 17 6 18 -13 6z"/>
<path d="M1785 2930 c-3 -6 1 -7 9 -4 18 7 21 14 7 14 -6 0 -13 -4 -16 -10z"/>
<path d="M1060 2921 c0 -5 7 -11 14 -14 10 -4 13 -1 9 9 -6 15 -23 19 -23 5z"/>
<path d="M1876 2913 c-6 -14 -5 -15 5 -6 7 7 10 15 7 18 -3 3 -9 -2 -12 -12z"/>
<path d="M2048 2913 c7 -3 16 -2 19 1 4 3 -2 6 -13 5 -11 0 -14 -3 -6 -6z"/>
<path d="M2460 2909 c0 -5 5 -7 10 -4 6 3 10 8 10 11 0 2 -4 4 -10 4 -5 0 -10
-5 -10 -11z"/>
<path d="M1517 2865 c3 -8 9 -12 14 -9 12 7 11 11 -5 17 -10 4 -13 1 -9 -8z"/>
<path d="M970 2846 c0 -2 7 -6 15 -10 8 -3 15 -1 15 4 0 6 -7 10 -15 10 -8 0
-15 -2 -15 -4z"/>
<path d="M1530 2829 c0 -5 5 -7 10 -4 6 3 10 8 10 11 0 2 -4 4 -10 4 -5 0 -10
-5 -10 -11z"/>
<path d="M1556 2821 c-10 -11 -15 -24 -12 -30 3 -5 1 -11 -6 -13 -9 -3 -9 -6
0 -12 7 -4 12 -2 12 4 0 6 4 9 8 6 4 -2 14 5 22 17 12 20 12 21 -3 8 -19 -15
-22 -8 -7 20 14 24 8 24 -14 0z"/>
<path d="M1030 2826 c0 -2 7 -9 15 -16 12 -10 15 -10 15 4 0 9 -7 16 -15 16
-8 0 -15 -2 -15 -4z"/>
<path d="M1448 2823 c7 -3 16 -2 19 1 4 3 -2 6 -13 5 -11 0 -14 -3 -6 -6z"/>
<path d="M1180 2809 c0 -5 5 -7 10 -4 6 3 10 8 10 11 0 2 -4 4 -10 4 -5 0 -10
-5 -10 -11z"/>
<path d="M1325 2810 c3 -5 11 -10 16 -10 6 0 7 5 4 10 -3 6 -11 10 -16 10 -6
0 -7 -4 -4 -10z"/>
<path d="M1150 2800 c0 -5 5 -10 11 -10 5 0 7 5 4 10 -3 6 -8 10 -11 10 -2 0
-4 -4 -4 -10z"/>
<path d="M1433 2803 c4 -3 1 -13 -6 -22 -11 -14 -10 -14 5 -2 16 12 16 31 1
31 -4 0 -3 -3 0 -7z"/>
<path d="M990 2780 c0 -6 7 -10 15 -10 8 0 15 2 15 4 0 2 -7 6 -15 10 -8 3
-15 1 -15 -4z"/>
<path d="M1235 2780 c-12 -20 -14 -50 -3 -44 5 4 7 13 4 21 -4 11 -2 13 9 10
8 -4 17 -1 21 5 4 6 3 8 -4 4 -5 -3 -12 -1 -14 6 -3 9 -7 8 -13 -2z"/>
<path d="M1289 2773 c-13 -15 -12 -15 9 -4 23 12 28 21 13 21 -5 0 -15 -7 -22
-17z"/>
<path d="M1450 2773 c0 -5 12 -9 27 -10 19 -1 22 1 12 8 -17 11 -39 12 -39 2z"/>
<path d="M1068 2743 c5 -21 7 -23 10 -9 2 10 0 22 -6 28 -6 6 -7 0 -4 -19z"/>
<path d="M1095 2760 c-3 -5 1 -10 10 -10 9 0 13 5 10 10 -3 6 -8 10 -10 10 -2
0 -7 -4 -10 -10z"/>
<path d="M1167 2755 c3 -8 9 -12 14 -9 12 7 11 11 -5 17 -10 4 -13 1 -9 -8z"/>
<path d="M1331 2761 c-9 -6 -10 -11 -2 -15 6 -4 11 -3 11 3 0 5 8 12 18 14 12
3 13 5 2 6 -8 0 -21 -3 -29 -8z"/>
<path d="M1393 2751 c-2 -23 21 -45 39 -38 9 4 7 6 -3 6 -23 1 -34 31 -11 31
15 0 15 2 2 10 -21 14 -26 12 -27 -9z"/>
<path d="M980 2751 c0 -6 7 -11 15 -11 8 0 15 -4 15 -10 0 -5 9 -14 20 -20 22
-12 25 -3 7 21 -15 20 -57 34 -57 20z"/>
<path d="M1521 2744 c10 -13 10 -17 -2 -25 -11 -7 -11 -9 4 -9 9 0 17 -3 17
-7 0 -5 14 -8 31 -9 31 -1 27 15 -5 20 -9 1 -15 6 -14 12 2 5 6 8 11 7 4 -2 7
4 7 13 0 14 -2 15 -17 3 -13 -11 -17 -11 -20 -1 -3 6 -9 12 -15 12 -6 0 -5 -7
3 -16z"/>
<path d="M1106 2731 c-3 -5 1 -11 9 -14 9 -4 12 -1 8 9 -6 16 -10 17 -17 5z"/>
<path d="M1470 2720 c-13 -11 -18 -20 -12 -20 7 0 12 -7 12 -16 0 -12 6 -15
26 -10 22 6 25 4 19 -14 -5 -15 -2 -20 13 -20 12 0 23 -9 27 -22 6 -20 8 -21
12 -5 3 13 8 15 17 8 9 -8 13 -7 13 4 0 8 -4 12 -8 9 -4 -2 -10 0 -14 6 -4 6
-11 8 -16 5 -5 -4 -9 -2 -9 4 0 5 5 13 10 16 22 13 8 23 -30 21 -24 -1 -45 3
-52 11 -7 8 -7 13 0 13 5 0 12 7 16 15 7 20 4 19 -24 -5z"/>
<path d="M980 2720 c0 -5 5 -10 11 -10 5 0 7 5 4 10 -3 6 -8 10 -11 10 -2 0
-4 -4 -4 -10z"/>
<path d="M1188 2723 c7 -3 16 -2 19 1 4 3 -2 6 -13 5 -11 0 -14 -3 -6 -6z"/>
<path d="M1051 2693 c-16 -17 -6 -32 11 -15 7 7 23 12 37 12 29 0 20 12 -11
16 -13 1 -29 -5 -37 -13z"/>
<path d="M1232 2696 c10 -7 15 -16 11 -19 -3 -4 1 -7 10 -7 15 0 15 3 5 20 -7
11 -20 20 -28 20 -12 -1 -12 -3 2 -14z"/>
<path d="M1384 2695 c22 -17 40 -20 32 -6 -3 5 -16 11 -28 14 -22 6 -22 5 -4
-8z"/>
<path d="M1196 2680 c-11 -3 -15 -9 -10 -13 10 -6 42 9 34 16 -3 3 -14 1 -24
-3z"/>
<path d="M1310 2675 c0 -8 -6 -15 -14 -15 -8 0 -17 -4 -20 -9 -3 -5 18 -9 47
-8 28 0 40 2 25 4 -31 5 -38 29 -10 36 13 4 11 5 -5 6 -14 1 -23 -5 -23 -14z"/>
<path d="M1580 2659 c0 -5 5 -7 10 -4 6 3 10 8 10 11 0 2 -4 4 -10 4 -5 0 -10
-5 -10 -11z"/>
<path d="M1394 2644 c-18 -15 -18 -15 4 -9 13 4 22 2 22 -4 0 -16 17 -13 23 3
4 11 1 13 -10 9 -11 -4 -14 -2 -9 5 10 17 -7 15 -30 -4z"/>
<path d="M1286 2593 c5 -5 12 -12 16 -18 4 -6 8 -2 8 8 0 9 -7 17 -17 17 -9 0
-12 -3 -7 -7z"/>
<path d="M1270 2560 c0 -5 13 -16 30 -25 34 -18 40 -18 40 -5 0 6 -6 10 -14
10 -7 0 -19 7 -26 15 -14 17 -30 20 -30 5z"/>
<path d="M1200 2530 c-8 -5 -11 -12 -7 -16 4 -4 13 -2 19 4 6 6 10 14 7 16 -2
3 -11 1 -19 -4z"/>
<path d="M4360 2950 c0 -5 5 -10 11 -10 5 0 7 5 4 10 -3 6 -8 10 -11 10 -2 0
-4 -4 -4 -10z"/>
<path d="M4400 2929 c0 -5 4 -8 9 -4 6 3 14 -3 20 -12 6 -10 11 -13 11 -7 0
12 -20 34 -32 34 -4 0 -8 -5 -8 -11z"/>
<path d="M4380 2889 c0 -5 5 -7 10 -4 6 3 10 8 10 11 0 2 -4 4 -10 4 -5 0 -10
-5 -10 -11z"/>
<path d="M3270 2835 c13 -14 25 -23 27 -21 6 6 -30 46 -41 46 -5 0 1 -11 14
-25z"/>
<path d="M4440 2850 c-13 -8 -12 -10 3 -10 9 0 17 5 17 10 0 12 -1 12 -20 0z"/>
<path d="M3495 2840 c3 -5 11 -10 16 -10 6 0 7 5 4 10 -3 6 -11 10 -16 10 -6
0 -7 -4 -4 -10z"/>
<path d="M4360 2813 c0 -11 3 -14 8 -7 4 6 14 14 22 17 10 4 8 6 -7 6 -16 1
-23 -5 -23 -16z"/>
<path d="M4906 2813 c-6 -14 -5 -15 5 -6 7 7 10 15 7 18 -3 3 -9 -2 -12 -12z"/>
<path d="M3830 2809 c0 -5 5 -7 10 -4 6 3 10 8 10 11 0 2 -4 4 -10 4 -5 0 -10
-5 -10 -11z"/>
<path d="M4550 2810 c-9 -6 -10 -10 -3 -10 6 0 15 5 18 10 8 12 4 12 -15 0z"/>
<path d="M4511 2794 c0 -11 3 -14 6 -6 3 7 2 16 -1 19 -3 4 -6 -2 -5 -13z"/>
<path d="M3332 2784 c-7 -8 -8 -14 -3 -14 10 0 25 19 20 25 -2 1 -10 -3 -17
-11z"/>
<path d="M4404 2787 c4 -13 1 -16 -17 -14 -12 2 -16 2 -9 0 10 -4 15 -19 14
-43 0 -3 6 -11 14 -18 11 -10 14 -10 14 2 0 8 -5 18 -10 21 -8 5 -7 11 0 20 9
10 9 19 0 32 -11 17 -11 17 -6 0z"/>
<path d="M3390 2769 c0 -5 5 -7 10 -4 6 3 10 8 10 11 0 2 -4 4 -10 4 -5 0 -10
-5 -10 -11z"/>
<path d="M3530 2770 c-9 -6 -10 -10 -3 -10 6 0 15 5 18 10 8 12 4 12 -15 0z"/>
<path d="M4515 2770 c-11 -4 -24 -5 -30 -2 -6 3 -6 1 0 -6 7 -7 21 -9 40 -4
16 5 25 11 20 14 -6 3 -19 2 -30 -2z"/>
<path d="M4565 2770 c-3 -5 -1 -10 4 -10 6 0 11 5 11 10 0 6 -2 10 -4 10 -3 0
-8 -4 -11 -10z"/>
<path d="M4686 2763 c-6 -14 -5 -15 5 -6 7 7 10 15 7 18 -3 3 -9 -2 -12 -12z"/>
<path d="M4822 2764 c10 -10 20 -16 22 -13 3 3 -5 11 -17 18 -21 13 -21 12 -5
-5z"/>
<path d="M3353 2755 c0 -8 4 -12 9 -9 4 3 8 9 8 15 0 5 -4 9 -8 9 -5 0 -9 -7
-9 -15z"/>
<path d="M4713 2755 c0 -8 4 -12 9 -9 5 3 6 10 3 15 -9 13 -12 11 -12 -6z"/>
<path d="M4430 2743 c0 -10 4 -14 8 -8 4 6 11 13 16 18 5 4 2 7 -7 7 -10 0
-17 -8 -17 -17z"/>
<path d="M4121 2734 c0 -11 3 -14 6 -6 3 7 2 16 -1 19 -3 4 -6 -2 -5 -13z"/>
<path d="M4580 2739 c0 -5 5 -7 10 -4 6 3 10 8 10 11 0 2 -4 4 -10 4 -5 0 -10
-5 -10 -11z"/>
<path d="M4878 2743 c7 -3 16 -2 19 1 4 3 -2 6 -13 5 -11 0 -14 -3 -6 -6z"/>
<path d="M4645 2729 c-4 -6 -5 -12 -2 -15 2 -3 7 2 10 11 7 17 1 20 -8 4z"/>
<path d="M4740 2730 c0 -5 5 -10 11 -10 5 0 7 5 4 10 -3 6 -8 10 -11 10 -2 0
-4 -4 -4 -10z"/>
<path d="M4926 2723 c-6 -14 -5 -15 5 -6 7 7 10 15 7 18 -3 3 -9 -2 -12 -12z"/>
<path d="M3530 2720 c8 -5 20 -10 25 -10 6 0 3 5 -5 10 -8 5 -19 10 -25 10 -5
0 -3 -5 5 -10z"/>
<path d="M4485 2719 c-4 -6 -14 -8 -23 -4 -13 5 -13 3 2 -14 12 -14 14 -21 6
-26 -7 -4 -16 -1 -21 6 -8 12 -11 12 -19 -1 -13 -19 -13 -53 0 -45 5 3 7 12 3
20 -6 18 -3 18 30 6 19 -8 30 -6 44 7 20 19 31 58 14 47 -6 -3 -11 -1 -11 4 0
14 -17 14 -25 0z m25 -17 c0 -5 -7 -17 -15 -28 -14 -18 -15 -18 -11 6 3 14 5
26 5 28 2 6 21 1 21 -6z"/>
<path d="M4670 2720 c0 -5 10 -10 23 -10 18 0 19 2 7 10 -19 13 -30 13 -30 0z"/>
<path d="M4785 2716 c-39 -44 -39 -46 -9 -45 24 0 26 2 10 8 -19 7 -18 8 3 23
12 9 19 18 14 21 -4 3 -12 0 -18 -7z"/>
<path d="M4860 2720 c20 -13 33 -13 25 0 -3 6 -14 10 -23 10 -15 0 -15 -2 -2
-10z"/>
<path d="M3390 2709 c0 -5 11 -9 25 -9 14 0 25 2 25 4 0 2 -11 6 -25 8 -14 3
-25 1 -25 -3z"/>
<path d="M3456 2712 c-2 -4 4 -14 15 -20 19 -12 19 -11 9 8 -12 22 -16 24 -24
12z"/>
<path d="M3500 2700 c0 -5 5 -10 10 -10 6 0 10 5 10 10 0 6 -4 10 -10 10 -5 0
-10 -4 -10 -10z"/>
<path d="M3985 2700 c-4 -6 -11 -8 -16 -5 -15 10 -10 0 10 -17 17 -15 19 -14
19 8 0 26 -3 29 -13 14z"/>
<path d="M4026 2702 c-2 -4 -1 -14 4 -22 7 -11 9 -9 7 8 -1 24 -3 26 -11 14z"/>
<path d="M4610 2700 c-8 -5 -11 -12 -7 -16 4 -4 13 -2 19 4 15 15 7 24 -12 12z"/>
<path d="M3555 2690 c3 -5 8 -10 11 -10 2 0 4 5 4 10 0 6 -5 10 -11 10 -5 0
-7 -4 -4 -10z"/>
<path d="M3650 2685 c-32 -18 -25 -18 25 0 22 8 31 14 20 14 -11 0 -31 -6 -45
-14z"/>
<path d="M3726 2692 c-3 -5 1 -9 9 -9 8 0 15 4 15 9 0 4 -4 8 -9 8 -6 0 -12
-4 -15 -8z"/>
<path d="M3820 2685 c-7 -9 -8 -15 -2 -15 5 0 12 7 16 15 3 8 4 15 2 15 -2 0
-9 -7 -16 -15z"/>
<path d="M4555 2689 c-6 -8 -4 -10 5 -4 10 6 12 4 6 -11 -6 -15 -5 -17 5 -6 9
9 10 15 2 23 -8 8 -13 7 -18 -2z"/>
<path d="M4693 2693 c-13 -2 -23 -8 -23 -12 0 -13 49 -31 55 -21 4 6 -1 10
-11 10 -13 0 -14 3 -4 15 7 8 11 14 9 14 -2 -1 -14 -4 -26 -6z"/>
<path d="M3405 2680 c3 -5 8 -10 11 -10 2 0 4 5 4 10 0 6 -5 10 -11 10 -5 0
-7 -4 -4 -10z"/>
<path d="M3438 2683 c7 -3 16 -2 19 1 4 3 -2 6 -13 5 -11 0 -14 -3 -6 -6z"/>
<path d="M3855 2680 c3 -5 8 -10 11 -10 2 0 4 5 4 10 0 6 -5 10 -11 10 -5 0
-7 -4 -4 -10z"/>
<path d="M3892 2677 c-7 -8 -7 -18 -2 -27 8 -12 10 -11 10 7 0 12 6 24 13 26
7 4 8 6 1 6 -6 1 -16 -5 -22 -12z"/>
<path d="M4060 2683 c0 -5 9 -20 20 -33 11 -13 20 -17 20 -10 0 7 7 10 16 6
15 -6 15 -4 3 10 -9 11 -15 12 -17 5 -2 -7 -12 -3 -23 10 -10 12 -19 18 -19
12z"/>
<path d="M3770 2664 c0 -8 5 -12 10 -9 6 4 8 11 5 16 -9 14 -15 11 -15 -7z"/>
<path d="M3945 2670 c-3 -5 -1 -10 4 -10 6 0 11 5 11 10 0 6 -2 10 -4 10 -3 0
-8 -4 -11 -10z"/>
<path d="M4371 2668 c-1 -22 18 -33 32 -19 8 8 7 11 -5 11 -9 0 -19 6 -21 13
-3 7 -6 6 -6 -5z"/>
<path d="M3436 2661 c-3 -4 6 -6 19 -3 14 2 25 6 25 8 0 8 -39 4 -44 -5z"/>
<path d="M4190 2660 c0 -5 5 -10 10 -10 6 0 10 5 10 10 0 6 -4 10 -10 10 -5 0
-10 -4 -10 -10z"/>
<path d="M4590 2660 c-9 -6 -10 -10 -3 -10 6 0 15 5 18 10 8 12 4 12 -15 0z"/>
<path d="M3645 2644 c-20 -15 -12 -17 19 -5 11 4 15 10 10 13 -5 4 -18 0 -29
-8z"/>
<path d="M3723 2649 c9 -5 17 -17 17 -24 0 -16 12 -20 23 -9 7 7 -36 44 -50
44 -4 0 0 -5 10 -11z"/>
<path d="M4624 2649 c-4 -7 3 -19 16 -29 22 -17 23 -18 4 -23 -10 -2 2 -3 28
-2 48 1 67 9 55 21 -4 4 -13 1 -22 -6 -12 -10 -20 -9 -40 4 -14 9 -23 21 -20
26 3 5 1 11 -4 14 -5 4 -13 1 -17 -5z"/>
<path d="M4760 2650 c-8 -5 -18 -6 -22 -4 -4 3 -8 0 -8 -7 0 -7 10 -9 30 -5
22 4 30 2 30 -9 0 -8 4 -15 9 -15 5 0 11 -9 14 -20 3 -11 2 -18 -3 -15 -4 3
-10 -2 -14 -10 -3 -10 1 -15 12 -15 10 0 23 -5 29 -11 8 -8 13 -8 17 0 4 6 1
11 -7 11 -9 0 -17 13 -19 30 -3 20 0 30 8 30 21 0 24 16 3 17 -10 1 -19 -3
-19 -8 0 -6 -4 -8 -10 -4 -5 3 -7 12 -3 21 4 11 14 13 42 8 20 -4 33 -4 30 0
-11 11 -103 16 -119 6z"/>
<path d="M3860 2640 c0 -5 5 -10 11 -10 5 0 7 5 4 10 -3 6 -8 10 -11 10 -2 0
-4 -4 -4 -10z"/>
<path d="M4030 2642 c0 -4 10 -9 22 -9 18 -2 20 0 8 7 -18 12 -30 13 -30 2z"/>
<path d="M4695 2640 c5 -9 1 -10 -16 -6 -21 6 -22 6 -6 -5 13 -7 22 -8 29 -1
6 6 6 12 -3 17 -8 6 -10 4 -4 -5z"/>
<path d="M4550 2626 c0 -9 -5 -16 -11 -16 -6 0 -3 -8 7 -17 12 -13 19 -14 22
-5 2 8 13 10 29 6 17 -5 24 -3 19 4 -3 5 -18 9 -32 7 -18 -2 -24 2 -20 11 3 7
1 16 -4 19 -6 4 -10 -1 -10 -9z"/>
<path d="M4590 2630 c0 -5 5 -10 11 -10 5 0 7 5 4 10 -3 6 -8 10 -11 10 -2 0
-4 -4 -4 -10z"/>
<path d="M4879 2623 c-13 -16 -12 -17 4 -4 16 13 21 21 13 21 -2 0 -10 -8 -17
-17z"/>
<path d="M4980 2626 c0 -8 -6 -17 -12 -19 -8 -3 -6 -6 5 -6 11 -1 17 6 17 19
0 11 -2 20 -5 20 -3 0 -5 -6 -5 -14z"/>
<path d="M3638 2607 c-21 -11 -38 -24 -38 -28 0 -13 33 -20 40 -8 5 8 15 6 34
-6 34 -23 37 -18 17 26 l-16 36 -37 -20z m42 -17 c0 -5 -2 -10 -4 -10 -3 0 -8
5 -11 10 -3 6 -1 10 4 10 6 0 11 -4 11 -10z"/>
<path d="M3815 2620 c3 -5 8 -10 11 -10 2 0 4 5 4 10 0 6 -5 10 -11 10 -5 0
-7 -4 -4 -10z"/>
<path d="M4018 2612 c5 -9 12 -24 15 -32 3 -8 5 -3 4 12 -1 15 -7 30 -14 33
-10 3 -11 0 -5 -13z"/>
<path d="M4377 2608 c-5 -19 -5 -19 14 -2 30 27 22 2 -12 -36 -17 -19 -28 -29
-25 -22 4 6 2 12 -4 12 -7 0 -9 -7 -6 -16 3 -9 6 -18 6 -20 0 -9 47 -3 58 8
16 16 15 48 0 48 -10 0 -9 3 1 9 7 5 12 14 9 21 -7 21 -36 20 -41 -2z m23 -68
c-8 -5 -17 -7 -19 -4 -3 3 1 9 9 14 8 5 17 7 19 4 3 -3 -1 -9 -9 -14z"/>
<path d="M4440 2621 c0 -6 4 -13 10 -16 6 -3 7 1 4 9 -7 18 -14 21 -14 7z"/>
<path d="M3845 2610 c-3 -5 -1 -10 4 -10 6 0 11 5 11 10 0 6 -2 10 -4 10 -3 0
-8 -4 -11 -10z"/>
<path d="M4120 2605 c-11 -13 -10 -19 4 -33 17 -16 18 -16 11 5 -5 18 -3 22 9
17 9 -3 12 -12 9 -22 -5 -13 -3 -14 7 -5 9 8 9 16 1 30 -6 10 -11 14 -11 8 0
-5 -4 -4 -9 3 -6 10 -10 10 -21 -3z"/>
<path d="M4912 2600 c0 -14 2 -19 5 -12 2 6 2 18 0 25 -3 6 -5 1 -5 -13z"/>
<path d="M4170 2600 c0 -5 5 -10 10 -10 6 0 10 5 10 10 0 6 -4 10 -10 10 -5 0
-10 -4 -10 -10z"/>
<path d="M3820 2591 c0 -13 30 -22 51 -16 20 7 26 25 9 25 -5 0 -10 -4 -10
-10 0 -6 -9 -6 -25 0 -14 5 -25 6 -25 1z"/>
<path d="M4843 2585 c0 -8 4 -15 9 -15 4 0 8 4 8 9 0 6 -4 12 -8 15 -5 3 -9
-1 -9 -9z"/>
<path d="M4061 2579 c0 -9 6 -22 14 -29 10 -9 15 -9 15 -1 0 6 -4 11 -9 11 -5
0 -12 8 -14 18 -4 14 -5 14 -6 1z"/>
<path d="M4240 2579 c0 -5 5 -7 10 -4 6 3 10 8 10 11 0 2 -4 4 -10 4 -5 0 -10
-5 -10 -11z"/>
<path d="M4296 2575 c7 -18 20 -19 30 -3 4 7 3 8 -4 4 -7 -4 -12 -2 -12 3 0 6
-4 11 -10 11 -5 0 -7 -7 -4 -15z"/>
<path d="M4103 2558 c7 -21 -17 -38 -44 -31 -11 3 -15 11 -12 20 4 10 2 14 -6
12 -20 -7 -16 -23 8 -35 12 -6 22 -14 21 -18 -1 -4 1 -12 3 -19 4 -9 6 -9 6 1
1 6 1 14 1 18 -1 3 9 14 22 24 20 16 21 21 9 32 -12 11 -13 10 -8 -4z"/>
<path d="M4299 2533 c-13 -15 -12 -15 9 -4 23 12 28 21 13 21 -5 0 -15 -7 -22
-17z"/>
<path d="M4250 2490 c0 -5 5 -10 10 -10 6 0 10 5 10 10 0 6 -4 10 -10 10 -5 0
-10 -4 -10 -10z"/>
<path d="M3930 2500 c0 -5 5 -10 11 -10 5 0 7 5 4 10 -3 6 -8 10 -11 10 -2 0
-4 -4 -4 -10z"/>
<path d="M3140 2506 c0 -7 6 -19 14 -25 11 -10 16 -8 21 9 4 12 4 24 1 27 -3
4 -6 1 -6 -5 0 -7 -5 -12 -11 -12 -5 0 -7 5 -4 10 3 6 1 10 -4 10 -6 0 -11 -6
-11 -14z"/>
</g>
</svg>
